<mxfile host="app.diagrams.net" modified="2023-10-07T13:33:09.947Z" agent="Mozilla/5.0 (Macintosh; Intel Mac OS X 10_15_7) AppleWebKit/537.36 (KHTML, like Gecko) Chrome/117.0.0.0 Safari/537.36" version="21.7.5" etag="kgu6yOqG9pblvnKM7Rz9" type="github">
  <diagram name="第 1 页" id="yZ50LYLkLXcSiX5Wgzr-">
    <mxGraphModel>
      <root>
        <mxCell id="0" />
        <mxCell id="1" parent="0" />
      </root>
    </mxGraphModel>
  </diagram>
</mxfile>
